<?xml version="1.0" encoding="utf-8"?>
<!-- Generator: Adobe Illustrator 14.0.0, SVG Export Plug-In . SVG Version: 6.00 Build 43363)  -->
<!DOCTYPE svg PUBLIC "-//W3C//DTD SVG 1.1//EN" "http://www.w3.org/Graphics/SVG/1.1/DTD/svg11.dtd">
<svg version="1.1" id="Ebene_1" xmlns="http://www.w3.org/2000/svg" xmlns:xlink="http://www.w3.org/1999/xlink" x="0px" y="0px"
	 width="1406.795px" height="525px" viewBox="0 0 1406.795 525" enable-background="new 0 0 1406.795 525" xml:space="preserve">
<symbol  id="handy_samsung" viewBox="-19.637 -35 39.274 70">
	<path fill="#662D91" d="M19.637-33.5c0-0.829-0.527-1.5-1.179-1.5h-36.917c-0.65,0-1.178,0.671-1.178,1.5v67
		c0,0.828,0.527,1.5,1.178,1.5h36.917c0.651,0,1.179-0.672,1.179-1.5V-33.5z"/>
	<polygon fill="#FFFFFF" points="17.821,-28.036 -17.822,-28.036 -17.822,28.552 17.821,28.552 	"/>
	<polygon fill="#FFFFFF" points="5.115,30.049 -5.115,30.049 -5.115,31.369 5.115,31.369 	"/>
	<path fill="#FFFFFF" d="M4-32.987c0-0.239-0.224-0.435-0.5-0.435h-7c-0.276,0-0.5,0.194-0.5,0.435v2.607
		c0,0.24,0.224,0.435,0.5,0.435h7c0.276,0,0.5-0.193,0.5-0.435V-32.987z"/>
</symbol>
<symbol  id="tablet_samsung" viewBox="-40.771 -60.234 81.543 120.469">
	<path fill="#FF00FF" d="M40.771-55.234c0-2.762-2.276-5-5.083-5h-71.377c-2.807,0-5.083,2.238-5.083,5V55.234
		c0,2.762,2.276,5,5.083,5h71.377c2.807,0,5.083-2.238,5.083-5V-55.234z"/>
	<polygon fill="#FFFFFF" points="33.558,-52.349 -33.557,-52.349 -33.557,52.35 33.558,52.35 	"/>
	<polygon fill="#FFFFFF" points="-37.299,-6.207 -38.757,-6.207 -38.757,6.208 -37.299,6.208 	"/>
</symbol>
<g id="Ebene_6">
	<rect y="0" fill="#F2F2E3" width="1406.795" height="525"/>
</g>
<g id="Ebene_2">
</g>
<g id="Ebene_4">
	<g>
		<path fill="#1F2DA8" d="M348.271,443.541c0,2.21-1.791,4-4,4h-22c-2.209,0-4-1.79-4-4V395.54c0-2.209,1.791-4,4-4h22
			c2.209,0,4,1.791,4,4V443.541z"/>
		<rect x="320.779" y="399.171" fill="#FFFFFF" width="24.983" height="40.351"/>
		<rect x="328.725" y="396.244" fill="#FFFFFF" width="9.094" height="0.732"/>
		<path fill="#FFFFFF" d="M336.771,444.494c0,0.224-0.179,0.4-0.4,0.4h-6.199c-0.222,0-0.4-0.178-0.4-0.4v-2.198
			c0-0.222,0.179-0.4,0.4-0.4h6.199c0.222,0,0.4,0.18,0.4,0.4V444.494z"/>
	</g>
	<g>
		<path fill="#005CBA" d="M378.633,443.338c0,2.063-1.673,3.735-3.735,3.735h-20.543c-2.063,0-3.735-1.674-3.735-3.735v-44.821
			c0-2.063,1.673-3.735,3.735-3.735h20.543c2.063,0,3.735,1.672,3.735,3.735V443.338z"/>
		<rect x="352.961" y="403.457" fill="#FFFFFF" width="23.329" height="33.869"/>
		<rect x="360.38" y="400.174" fill="#FFFFFF" width="8.492" height="0.684"/>
		<path fill="#FFFFFF" d="M367.895,443.094c0,0.281-0.167,0.51-0.374,0.51h-5.789c-0.207,0-0.374-0.229-0.374-0.51v-2.808
			c0-0.282,0.167-0.512,0.374-0.512h5.789c0.207,0,0.374,0.229,0.374,0.512V443.094z"/>
	</g>
	<g>
		<path fill="#4D2D91" d="M315.598,446.213c0,0.731-0.44,1.328-0.985,1.328h-30.851c-0.544,0-0.984-0.597-0.984-1.328v-59.36
			c0-0.732,0.44-1.328,0.984-1.328h30.851c0.545,0,0.985,0.596,0.985,1.328V446.213z"/>
		<rect x="284.294" y="392.701" fill="#FFFFFF" width="29.787" height="47.354"/>
		<rect x="294.913" y="387.74" fill="#FFFFFF" width="8.549" height="1.17"/>
		<path fill="#FFFFFF" d="M302.012,445.387c0,0.27-0.157,0.488-0.354,0.488h-4.941c-0.196,0-0.354-0.22-0.354-0.488v-2.918
			c0-0.271,0.157-0.486,0.354-0.486h4.941c0.196,0,0.354,0.217,0.354,0.486V445.387z"/>
	</g>
	<g>
		
			<use xlink:href="#handy_samsung"  width="39.274" height="70" x="-19.637" y="-35" transform="matrix(1.0134 0 0 -1.0134 268.3569 412.0715)" overflow="visible"/>
	</g>
	<g>
		<path fill="#D900FF" d="M258.643,443.609c0,2.172-1.79,3.933-3.997,3.933h-56.131c-2.207,0-3.997-1.761-3.997-3.933v-86.873
			c0-2.171,1.79-3.932,3.997-3.932h56.131c2.207,0,3.997,1.761,3.997,3.932V443.609z"/>
		<rect x="200.191" y="359.005" fill="#FFFFFF" width="52.777" height="82.334"/>
		<rect x="196.102" y="395.29" fill="#FFFFFF" width="1.146" height="9.764"/>
	</g>
	<g>
		
			<use xlink:href="#tablet_samsung"  width="81.543" height="120.469" x="-40.771" y="-60.234" transform="matrix(0.9261 0 0 -0.9261 194.5181 391.7561)" overflow="visible"/>
	</g>
	<g>
		<path fill="#FF7BAC" d="M197.53,442.541c0,2.763-2.277,5-5.084,5h-71.377c-2.807,0-5.082-2.237-5.082-5v-110.47
			c0-2.761,2.275-5,5.082-5h71.377c2.807,0,5.084,2.239,5.084,5V442.541z"/>
		<rect x="123.202" y="334.956" fill="#FFFFFF" width="67.113" height="104.698"/>
		<rect x="118.001" y="381.098" fill="#FFFFFF" width="1.457" height="12.415"/>
	</g>
	<g>
		<path fill="#BD7BAC" d="M151.096,366.086c2.762,0,5,2.276,5,5.084v71.377c0,2.807-2.238,5.082-5,5.082H40.625
			c-2.761,0-5-2.275-5-5.082V371.17c0-2.808,2.239-5.084,5-5.084H151.096z"/>
		<rect x="43.511" y="373.301" fill="#FFFFFF" width="104.698" height="67.112"/>
		<rect x="89.652" y="444.158" fill="#FFFFFF" width="12.415" height="1.457"/>
	</g>
	<g>
		<path fill="#007DBA" d="M408.308,444.233c0,1.656-1.343,3-3,3h-21c-1.657,0-3-1.344-3-3v-45.001c0-1.657,1.343-3,3-3h21
			c1.657,0,3,1.343,3,3V444.233z"/>
		<rect x="383.284" y="403.102" fill="#FFFFFF" width="23.047" height="37.008"/>
		<rect x="392.414" y="399.489" fill="#FFFFFF" width="4.788" height="0.772"/>
		<circle fill="#FFFFFF" cx="394.808" cy="443.436" r="2.008"/>
	</g>
	<g>
		<path fill="#009CAB" d="M440.422,443.305c0,1.723-1.396,3.121-3.122,3.121h-21.858c-1.725,0-3.123-1.398-3.123-3.121v-46.841
			c0-1.726,1.398-3.123,3.123-3.123H437.3c1.726,0,3.122,1.397,3.122,3.123V443.305z"/>
		<rect x="414.376" y="399.456" fill="#FFFFFF" width="23.989" height="39.559"/>
		<rect x="423.879" y="396.732" fill="#FFFFFF" width="4.984" height="0.804"/>
		<circle fill="#FFFFFF" cx="426.371" cy="442.475" r="2.09"/>
	</g>
	<g>
		<path fill="#009C94" d="M477.756,442.389c0,1.922-1.558,3.479-3.479,3.479h-24.371c-1.924,0-3.482-1.559-3.482-3.479v-58.775
			c0-1.923,1.56-3.48,3.482-3.48h24.371c1.923,0,3.479,1.559,3.479,3.48V442.389z"/>
		<rect x="448.717" y="388.551" fill="#FFFFFF" width="26.745" height="49.053"/>
		<rect x="458.768" y="384.912" fill="#FFFFFF" width="6.644" height="0.896"/>
		<circle fill="#FFFFFF" cx="462.09" cy="441.463" r="2.33"/>
	</g>
	<g>
		<path fill="#00B378" d="M519.271,434.204c0,2.095-1.696,3.793-3.791,3.793h-26.549c-2.096,0-3.793-1.698-3.793-3.793v-64.021
			c0-2.095,1.697-3.792,3.793-3.792h26.549c2.095,0,3.791,1.698,3.791,3.792V434.204z"/>
		<rect x="486.45" y="373.503" fill="#FFFFFF" width="31.511" height="56.997"/>
		<rect x="498.588" y="370.284" fill="#FFFFFF" width="7.235" height="0.977"/>
		<circle fill="#FFFFFF" cx="502.206" cy="434.438" r="2.538"/>
	</g>
	<g>
		<path fill="#EBCC00" d="M810.896,372.053c0,2.174-1.709,3.936-3.817,3.936H691.263c-2.108,0-3.817-1.762-3.817-3.936V218.576
			c0-2.174,1.709-3.937,3.817-3.937h115.815c2.107,0,3.816,1.762,3.816,3.937v153.477H810.896z"/>
		<rect x="694.229" y="226.283" fill="#FFFFFF" width="109.883" height="132.892"/>
		<circle fill="#FFFFFF" cx="749.17" cy="221.524" r="1.757"/>
		<circle fill="#FFFFFF" cx="749.17" cy="367.098" r="4.649"/>
	</g>
	<g>
		<path fill="#BFCC00" d="M735.944,386.834c0,1.708-1.344,3.092-3,3.092h-91c-1.657,0-3-1.384-3-3.092V266.243
			c0-1.708,1.343-3.093,3-3.093h91c1.656,0,3,1.386,3,3.093V386.834z"/>
		<rect x="645.351" y="274.808" fill="#FFFFFF" width="84.188" height="101.908"/>
		<circle fill="#FFFFFF" cx="687.444" cy="268.916" r="1.381"/>
		<circle fill="#FFFFFF" cx="687.444" cy="382.942" r="3.653"/>
	</g>
	<g>
		<path fill="#94B31C" d="M683.944,410.36c0,1.682-1.344,3.046-3,3.046h-84c-1.657,0-3-1.364-3-3.046V291.563
			c0-1.682,1.343-3.046,3-3.046h84c1.656,0,3,1.364,3,3.046V410.36z"/>
		<rect x="600.694" y="300.256" fill="#FFFFFF" width="76.5" height="99.938"/>
		<circle fill="#FFFFFF" cx="638.944" cy="295.395" r="1.381"/>
		<circle fill="#FFFFFF" cx="638.944" cy="406.421" r="3.653"/>
	</g>
	<g>
		<path fill="#4FB31C" d="M628.944,419.748c0,2.209-1.791,4-4,4h-62c-2.209,0-4-1.791-4-4v-96c0-2.209,1.791-4,4-4h62
			c2.209,0,4,1.791,4,4V419.748z"/>
		<rect x="560.941" y="329.329" fill="#FFFFFF" width="66.006" height="84.159"/>
		<circle fill="#FFFFFF" cx="593.944" cy="326.077" r="1.163"/>
		<circle fill="#FFFFFF" cx="593.944" cy="418.732" r="3.076"/>
	</g>
	<g>
		<path fill="#00B34F" d="M566.513,429.47c0,2.4-1.944,4.349-4.347,4.349h-30.44c-2.402,0-4.35-1.947-4.35-4.349v-73.41
			c0-2.402,1.946-4.349,4.35-4.349h30.44c2.401,0,4.347,1.946,4.347,4.349V429.47z"/>
		<rect x="528.144" y="358.777" fill="#FFFFFF" width="37.603" height="66.443"/>
		<rect x="542.796" y="355.615" fill="#FFFFFF" width="8.297" height="1.12"/>
		<circle fill="#FFFFFF" cx="546.945" cy="429.23" r="2.911"/>
	</g>
	<g>
		<path fill="#5780A3" d="M468.139,426.041c1.724,0,3.121,1.397,3.121,3.122v21.858c0,1.725-1.397,3.123-3.121,3.123h-46.842
			c-1.725,0-3.122-1.398-3.122-3.123v-21.858c0-1.725,1.397-3.122,3.122-3.122H468.139z"/>
		<rect x="424.29" y="428.099" fill="#FFFFFF" width="39.558" height="23.989"/>
		<rect x="421.565" y="437.601" fill="#FFFFFF" width="0.804" height="4.984"/>
		<circle fill="#FFFFFF" cx="467.309" cy="440.094" r="2.09"/>
	</g>
	<g>
		<path fill="#DE668F" d="M1358.979,362.403c0,4.126-3.347,7.473-7.474,7.473H939.713c-4.131,0-7.474-3.347-7.474-7.473V95.346
			c0-4.126,3.343-7.472,7.474-7.472h411.792c4.127,0,7.474,3.346,7.474,7.472V362.403z"/>
		<rect x="952.144" y="107.958" fill="#FFFFFF" width="386.931" height="241.832"/>
	</g>
	<g>
		<path fill="#FF828F" d="M1250.572,385.029c0,3.229-2.618,5.847-5.849,5.847H922.513c-3.231,0-5.848-2.617-5.848-5.847V176.066
			c0-3.229,2.615-5.847,5.848-5.847h322.212c3.229,0,5.849,2.618,5.849,5.847L1250.572,385.029L1250.572,385.029z"/>
		<rect x="932.239" y="185.935" fill="#FFFFFF" width="302.758" height="189.225"/>
	</g>
	<path fill="#FFA600" d="M1128.653,386.615c0,2.353-1.907,4.26-4.261,4.26H889.671c-2.354,0-4.26-1.907-4.26-4.26V234.393
		c0-2.352,1.905-4.259,4.26-4.259h234.724c2.353,0,4.26,1.907,4.26,4.259L1128.653,386.615L1128.653,386.615z"/>
	<rect x="896.757" y="241.582" fill="#FFFFFF" width="220.551" height="137.845"/>
	<g>
		<path fill="#FFA600" d="M1032.148,397.102v4.515h-46.014v-4.515h-140.26v6.389c0,3.92,3.179,7.1,7.099,7.1h312.335
			c3.92,0,7.101-3.179,7.101-7.1v-6.389H1032.148z"/>
	</g>
	<g>
		<path fill="#FFBF00" d="M1041.143,408.851c0,2.035-1.648,3.685-3.685,3.685H834.404c-2.036,0-3.686-1.649-3.686-3.685V277.166
			c0-2.035,1.648-3.686,3.686-3.686h203.054c2.035,0,3.685,1.65,3.685,3.686V408.851L1041.143,408.851z"/>
		<rect x="840.534" y="283.385" fill="#FFFFFF" width="190.794" height="119.246"/>
		<g>
			<path fill="#FFBF00" d="M957.658,417.922v3.904h-39.805v-3.904H796.519v5.526c0,3.392,2.75,6.142,6.142,6.142h270.193
				c3.392,0,6.143-2.75,6.143-6.142v-5.526H957.658z"/>
		</g>
	</g>
	<g>
		<path fill="#FFE300" d="M930.714,433.094c0,1.657-1.342,3-3,3H762.382c-1.658,0-3-1.343-3-3V325.872c0-1.656,1.342-3,3-3h165.332
			c1.658,0,3,1.344,3,3V433.094z"/>
		<rect x="767.372" y="330.937" fill="#FFFFFF" width="155.352" height="97.094"/>
		<g>
			<path fill="#FFE300" d="M862.739,440.48v3.18h-32.41v-3.18h-98.795v4.5c0,2.761,2.238,5,5,5h220c2.762,0,5-2.239,5-5v-4.5
				H862.739z"/>
		</g>
	</g>
	<g>
		<path fill="#D9E021" d="M838.16,451.09c0,1.656-1.343,3-3,3H669.827c-1.657,0-3-1.344-3-3v-98.223c0-1.656,1.343-3,3-3H835.16
			c1.657,0,3,1.344,3,3V451.09z"/>
		<g>
			<path fill="#D9E021" d="M770.024,458.476v3.18h-32.41v-3.18h-98.795v4.5c0,2.761,2.237,5,5,5h220c2.762,0,5-2.239,5-5v-4.5
				H770.024z"/>
		</g>
		<rect x="677.718" y="360.756" fill="#FFFFFF" width="149.552" height="84.122"/>
	</g>
</g>
<g id="Ebene_5">
</g>
<g>
	<path fill="#A6A69C" d="M49.425,47.535c1.296,0.32,2.408,0.672,3.336,1.056v6c-1.056-0.672-2.129-1.216-3.216-1.632
		c-1.088-0.416-2.208-0.624-3.36-0.624c-1.056,0-1.865,0.272-2.424,0.816c-0.561,0.544-0.84,1.632-0.84,3.264
		c0,1.601,0.216,2.696,0.648,3.288c0.432,0.593,1.16,0.888,2.184,0.888c1.024,0,2.056,0.12,3.096,0.36
		c1.04,0.24,1.968,0.729,2.784,1.464c0.816,0.737,1.48,1.776,1.992,3.12c0.512,1.344,0.768,3.137,0.768,5.376
		c0,1.92-0.232,3.537-0.696,4.848c-0.464,1.313-1.088,2.369-1.872,3.168c-0.785,0.8-1.712,1.368-2.784,1.704
		c-1.073,0.336-2.216,0.504-3.432,0.504c-1.536,0-2.808-0.128-3.816-0.384c-1.008-0.256-2.008-0.592-3-1.008v-6
		c1.056,0.641,2.104,1.152,3.144,1.536c1.04,0.384,2.184,0.576,3.432,0.576c1.184,0,2.104-0.352,2.76-1.056
		c0.656-0.704,0.984-2,0.984-3.888c0-1.824-0.28-3.016-0.84-3.576c-0.56-0.56-1.464-0.84-2.712-0.84c-1.056,0-2.072-0.12-3.048-0.36
		c-0.977-0.24-1.824-0.72-2.544-1.44c-0.72-0.72-1.296-1.744-1.728-3.072c-0.432-1.327-0.648-3.063-0.648-5.208
		c0-1.759,0.2-3.24,0.6-4.44c0.4-1.2,0.968-2.16,1.704-2.88c0.736-0.72,1.616-1.24,2.64-1.56c1.023-0.319,2.16-0.48,3.408-0.48
		C46.969,47.055,48.129,47.216,49.425,47.535z"/>
	<path fill="#A6A69C" d="M71.336,62.944c-0.833-0.544-1.616-0.943-2.352-1.2c-0.736-0.256-1.424-0.384-2.064-0.384
		c-0.449,0-0.856,0.056-1.224,0.168c-0.368,0.112-0.688,0.408-0.96,0.888c-0.272,0.48-0.488,1.208-0.648,2.184
		c-0.161,0.977-0.24,2.328-0.24,4.056s0.08,3.08,0.24,4.056c0.16,0.977,0.375,1.704,0.648,2.184c0.271,0.48,0.592,0.776,0.96,0.888
		c0.368,0.113,0.775,0.168,1.224,0.168c1.344,0,2.815-0.528,4.416-1.584v5.376c-0.8,0.32-1.672,0.593-2.616,0.816
		c-0.944,0.224-2.008,0.336-3.192,0.336c-1.088,0-2.072-0.137-2.952-0.408c-0.88-0.271-1.632-0.84-2.256-1.704
		c-0.624-0.864-1.104-2.095-1.44-3.696c-0.336-1.6-0.504-3.744-0.504-6.432c0-2.72,0.184-4.888,0.552-6.504
		c0.368-1.616,0.872-2.848,1.512-3.696c0.64-0.847,1.399-1.399,2.28-1.656c0.88-0.256,1.816-0.384,2.808-0.384
		c1.024,0,2.032,0.113,3.024,0.336c0.992,0.224,1.92,0.496,2.784,0.816V62.944z"/>
	<path fill="#A6A69C" d="M82.184,58.287c1.408-1.408,2.752-2.112,4.032-2.112v6.864c-0.768-0.255-1.488-0.319-2.16-0.192
		c-0.672,0.128-1.44,0.561-2.304,1.296l-1.536,1.296v15.216h-5.472v-17.28c0-1.216-0.041-2.448-0.12-3.696
		c-0.08-1.248-0.216-2.256-0.408-3.024h3.312c0.48,0.288,0.952,0.752,1.416,1.392c0.463,0.641,0.792,1.472,0.984,2.496
		L82.184,58.287z"/>
	<path fill="#A6A69C" d="M102.728,79.599c-0.768,0.288-1.72,0.617-2.856,0.984c-1.136,0.367-2.424,0.552-3.864,0.552
		c-1.152,0-2.208-0.161-3.168-0.48s-1.776-0.936-2.448-1.848c-0.672-0.912-1.192-2.176-1.56-3.792
		c-0.368-1.615-0.552-3.736-0.552-6.36c0-2.335,0.151-4.296,0.456-5.88c0.304-1.584,0.784-2.864,1.44-3.84
		c0.655-0.976,1.503-1.68,2.544-2.112c1.04-0.432,2.28-0.648,3.72-0.648c2.336,0,4.063,0.576,5.184,1.728
		c1.12,1.152,1.68,3.136,1.68,5.952v5.28h-9.552c0,2.112,0.104,3.688,0.312,4.728c0.208,1.04,0.68,1.784,1.416,2.232
		c0.832,0.48,1.904,0.6,3.216,0.36c1.312-0.24,2.656-0.792,4.032-1.656V79.599z M98.167,62.559
		c-0.064-0.576-0.168-1.032-0.312-1.368c-0.144-0.336-0.344-0.568-0.6-0.696c-0.257-0.127-0.593-0.192-1.008-0.192
		c-0.48,0-0.872,0.08-1.176,0.24c-0.305,0.16-0.552,0.424-0.744,0.792c-0.192,0.368-0.329,0.856-0.408,1.464
		c-0.08,0.608-0.136,1.36-0.168,2.256h4.512v-0.24C98.264,63.888,98.231,63.135,98.167,62.559z"/>
	<path fill="#A6A69C" d="M121.783,79.599c-0.768,0.288-1.72,0.617-2.856,0.984c-1.136,0.367-2.424,0.552-3.864,0.552
		c-1.152,0-2.208-0.161-3.168-0.48s-1.776-0.936-2.448-1.848c-0.672-0.912-1.192-2.176-1.56-3.792
		c-0.368-1.615-0.552-3.736-0.552-6.36c0-2.335,0.151-4.296,0.456-5.88c0.304-1.584,0.784-2.864,1.44-3.84
		c0.655-0.976,1.503-1.68,2.544-2.112c1.04-0.432,2.28-0.648,3.72-0.648c2.336,0,4.063,0.576,5.184,1.728
		c1.12,1.152,1.68,3.136,1.68,5.952v5.28h-9.552c0,2.112,0.104,3.688,0.312,4.728c0.208,1.04,0.68,1.784,1.416,2.232
		c0.832,0.48,1.904,0.6,3.216,0.36c1.312-0.24,2.656-0.792,4.032-1.656V79.599z M117.223,62.559
		c-0.064-0.576-0.168-1.032-0.312-1.368c-0.144-0.336-0.344-0.568-0.6-0.696c-0.257-0.127-0.593-0.192-1.008-0.192
		c-0.48,0-0.872,0.08-1.176,0.24c-0.305,0.16-0.552,0.424-0.744,0.792c-0.192,0.368-0.329,0.856-0.408,1.464
		c-0.08,0.608-0.136,1.36-0.168,2.256h4.512v-0.24C117.319,63.888,117.287,63.135,117.223,62.559z"/>
	<path fill="#A6A69C" d="M132.775,58.48c1.6-1.536,3.248-2.304,4.944-2.304c1.824,0,3.063,0.624,3.72,1.872
		c0.656,1.248,0.984,2.976,0.984,5.184v17.424h-5.472V63.232c0-0.864-0.096-1.456-0.288-1.776c-0.192-0.319-0.48-0.48-0.864-0.48
		c-0.353,0-0.704,0.12-1.056,0.36c-0.353,0.24-0.785,0.648-1.296,1.224l-1.056,1.2v16.896h-5.472v-17.28
		c0-1.216-0.041-2.448-0.12-3.696c-0.08-1.248-0.216-2.256-0.408-3.024h3.312c0.352,0.224,0.72,0.56,1.104,1.008
		c0.384,0.449,0.72,1.025,1.008,1.728L132.775,58.48z"/>
	<path fill="#A6A69C" d="M158.935,62.32c-1.088-0.544-2.112-0.96-3.072-1.248c-0.96-0.288-1.937-0.432-2.928-0.432
		c-0.672,0-1.224,0.185-1.656,0.552c-0.432,0.368-0.648,1.048-0.648,2.04c0,0.928,0.176,1.568,0.528,1.92
		c0.352,0.353,0.896,0.528,1.632,0.528c0.896,0,1.792,0.096,2.688,0.288c0.896,0.192,1.696,0.568,2.4,1.128
		c0.704,0.561,1.28,1.353,1.728,2.376c0.448,1.024,0.672,2.369,0.672,4.032c0,1.44-0.2,2.648-0.6,3.624
		c-0.401,0.977-0.944,1.76-1.632,2.352c-0.688,0.592-1.488,1.016-2.4,1.272c-0.912,0.255-1.896,0.384-2.952,0.384
		c-1.313,0-2.424-0.104-3.336-0.312c-0.912-0.208-1.784-0.472-2.616-0.792v-4.896c2.176,0.992,4.159,1.488,5.952,1.488
		c0.736,0,1.384-0.216,1.944-0.648c0.56-0.432,0.84-1.255,0.84-2.472c0-1.056-0.24-1.768-0.72-2.136
		c-0.48-0.367-1.185-0.552-2.112-0.552c-0.928,0-1.808-0.096-2.64-0.288c-0.833-0.192-1.56-0.56-2.184-1.104
		c-0.624-0.544-1.121-1.312-1.488-2.304c-0.368-0.991-0.552-2.288-0.552-3.888c0-1.344,0.168-2.464,0.504-3.36
		c0.336-0.896,0.816-1.615,1.44-2.16c0.624-0.544,1.375-0.936,2.256-1.176c0.88-0.24,1.864-0.36,2.952-0.36
		c0.448,0,0.928,0.032,1.44,0.096c0.512,0.064,1.04,0.16,1.584,0.288c0.544,0.128,1.072,0.264,1.584,0.408
		c0.512,0.144,0.976,0.296,1.392,0.456V62.32z"/>
	<path fill="#A6A69C" d="M170.118,80.656h-5.472V60.927h-2.496v-4.272h7.968V80.656z M169.614,47.991
		c0.624,0.624,0.936,1.4,0.936,2.328c0,0.928-0.312,1.704-0.936,2.328s-1.4,0.936-2.328,0.936c-0.929,0-1.704-0.312-2.328-0.936
		s-0.936-1.4-0.936-2.328c0-0.928,0.312-1.704,0.936-2.328s1.399-0.936,2.328-0.936C168.214,47.055,168.99,47.367,169.614,47.991z"
		/>
	<path fill="#A6A69C" d="M186.87,58.623l-6.672,17.76h7.056v4.272h-13.488v-1.968l6.672-17.76h-6.048v-4.272h12.48V58.623z"/>
	<path fill="#A6A69C" d="M204.341,79.599c-0.768,0.288-1.72,0.617-2.856,0.984c-1.136,0.367-2.424,0.552-3.864,0.552
		c-1.152,0-2.208-0.161-3.168-0.48s-1.776-0.936-2.448-1.848c-0.672-0.912-1.192-2.176-1.56-3.792
		c-0.368-1.615-0.552-3.736-0.552-6.36c0-2.335,0.151-4.296,0.456-5.88c0.304-1.584,0.784-2.864,1.44-3.84
		c0.655-0.976,1.503-1.68,2.544-2.112c1.04-0.432,2.28-0.648,3.72-0.648c2.336,0,4.063,0.576,5.184,1.728
		c1.12,1.152,1.68,3.136,1.68,5.952v5.28h-9.552c0,2.112,0.104,3.688,0.312,4.728c0.208,1.04,0.68,1.784,1.416,2.232
		c0.832,0.48,1.904,0.6,3.216,0.36c1.312-0.24,2.656-0.792,4.032-1.656V79.599z M199.781,62.559
		c-0.064-0.576-0.168-1.032-0.312-1.368c-0.144-0.336-0.344-0.568-0.6-0.696c-0.257-0.127-0.593-0.192-1.008-0.192
		c-0.48,0-0.872,0.08-1.176,0.24c-0.305,0.16-0.552,0.424-0.744,0.792c-0.192,0.368-0.329,0.856-0.408,1.464
		c-0.08,0.608-0.136,1.36-0.168,2.256h4.512v-0.24C199.877,63.888,199.845,63.135,199.781,62.559z"/>
	<path fill="#A6A69C" d="M221.141,62.32c-1.088-0.544-2.112-0.96-3.072-1.248c-0.96-0.288-1.937-0.432-2.928-0.432
		c-0.672,0-1.224,0.185-1.656,0.552c-0.432,0.368-0.648,1.048-0.648,2.04c0,0.928,0.176,1.568,0.528,1.92
		c0.352,0.353,0.896,0.528,1.632,0.528c0.896,0,1.792,0.096,2.688,0.288c0.896,0.192,1.696,0.568,2.4,1.128
		c0.704,0.561,1.28,1.353,1.728,2.376c0.448,1.024,0.672,2.369,0.672,4.032c0,1.44-0.2,2.648-0.6,3.624
		c-0.401,0.977-0.944,1.76-1.632,2.352c-0.688,0.592-1.488,1.016-2.4,1.272c-0.912,0.255-1.896,0.384-2.952,0.384
		c-1.313,0-2.424-0.104-3.336-0.312c-0.912-0.208-1.784-0.472-2.616-0.792v-4.896c2.176,0.992,4.159,1.488,5.952,1.488
		c0.736,0,1.384-0.216,1.944-0.648c0.56-0.432,0.84-1.255,0.84-2.472c0-1.056-0.24-1.768-0.72-2.136
		c-0.48-0.367-1.185-0.552-2.112-0.552c-0.928,0-1.808-0.096-2.64-0.288c-0.833-0.192-1.56-0.56-2.184-1.104
		c-0.624-0.544-1.121-1.312-1.488-2.304c-0.368-0.991-0.552-2.288-0.552-3.888c0-1.344,0.168-2.464,0.504-3.36
		c0.336-0.896,0.816-1.615,1.44-2.16c0.624-0.544,1.375-0.936,2.256-1.176c0.88-0.24,1.864-0.36,2.952-0.36
		c0.448,0,0.928,0.032,1.44,0.096c0.512,0.064,1.04,0.16,1.584,0.288c0.544,0.128,1.072,0.264,1.584,0.408
		c0.512,0.144,0.976,0.296,1.392,0.456V62.32z"/>
	<path fill="#A6A69C" d="M247.012,56.656v4.272h-5.568v19.728h-5.472V60.927h-3.216v-4.272h3.216v-2.64
		c0-1.408,0.136-2.551,0.408-3.432c0.271-0.88,0.696-1.56,1.272-2.04c0.576-0.48,1.312-0.808,2.208-0.984
		c0.896-0.175,1.951-0.264,3.168-0.264c0.192,0,0.463,0.008,0.816,0.024c0.352,0.017,0.72,0.048,1.104,0.096
		c0.384,0.048,0.76,0.096,1.128,0.144c0.368,0.048,0.68,0.104,0.936,0.168v4.416c-0.48-0.16-1.048-0.271-1.704-0.336
		c-0.656-0.063-1.256-0.096-1.8-0.096c-0.641,0-1.145,0.176-1.512,0.528c-0.368,0.353-0.552,0.992-0.552,1.92v2.496H247.012z"/>
	<path fill="#A6A69C" d="M256.228,58.287c1.408-1.408,2.752-2.112,4.032-2.112v6.864c-0.768-0.255-1.488-0.319-2.16-0.192
		c-0.672,0.128-1.44,0.561-2.304,1.296l-1.536,1.296v15.216h-5.472v-17.28c0-1.216-0.041-2.448-0.12-3.696
		c-0.08-1.248-0.216-2.256-0.408-3.024h3.312c0.48,0.288,0.952,0.752,1.416,1.392c0.463,0.641,0.792,1.472,0.984,2.496
		L256.228,58.287z"/>
	<path fill="#A6A69C" d="M277.708,74.535c-0.304,1.584-0.776,2.864-1.416,3.84c-0.641,0.976-1.457,1.68-2.448,2.112
		c-0.992,0.432-2.192,0.648-3.6,0.648c-1.409,0-2.616-0.216-3.624-0.648s-1.832-1.136-2.472-2.112s-1.104-2.256-1.392-3.84
		c-0.288-1.584-0.432-3.543-0.432-5.88c0-2.335,0.144-4.296,0.432-5.88c0.288-1.584,0.751-2.864,1.392-3.84
		c0.64-0.976,1.464-1.68,2.472-2.112s2.215-0.648,3.624-0.648c1.408,0,2.608,0.216,3.6,0.648c0.991,0.432,1.807,1.136,2.448,2.112
		c0.64,0.977,1.112,2.256,1.416,3.84c0.304,1.584,0.456,3.544,0.456,5.88C278.164,70.992,278.011,72.951,277.708,74.535z
		 M269.043,60.592c-0.32,0.192-0.576,0.576-0.768,1.152c-0.192,0.576-0.32,1.416-0.384,2.52c-0.064,1.104-0.096,2.568-0.096,4.392
		s0.032,3.288,0.096,4.392c0.064,1.104,0.192,1.944,0.384,2.52c0.192,0.576,0.448,0.96,0.768,1.152c0.32,0.192,0.72,0.288,1.2,0.288
		s0.88-0.096,1.2-0.288c0.319-0.192,0.576-0.576,0.768-1.152c0.192-0.576,0.32-1.416,0.384-2.52
		c0.063-1.104,0.096-2.568,0.096-4.392s-0.032-3.288-0.096-4.392c-0.064-1.104-0.192-1.944-0.384-2.52
		c-0.192-0.576-0.448-0.96-0.768-1.152c-0.32-0.192-0.72-0.288-1.2-0.288S269.363,60.4,269.043,60.592z"/>
	<path fill="#A6A69C" d="M297.555,58.672c0.768-0.736,1.567-1.336,2.4-1.8c0.832-0.463,1.68-0.696,2.544-0.696
		c1.824,0,3.064,0.624,3.72,1.872c0.655,1.248,0.984,2.976,0.984,5.184v17.424h-5.472V63.232c0-0.864-0.096-1.456-0.288-1.776
		c-0.192-0.319-0.48-0.48-0.864-0.48c-0.353,0-0.696,0.113-1.032,0.336c-0.336,0.225-0.776,0.641-1.32,1.248l-0.528,0.576v17.52
		h-5.472V63.232c0-0.864-0.096-1.456-0.288-1.776c-0.192-0.319-0.48-0.48-0.864-0.48c-0.353,0-0.696,0.12-1.032,0.36
		c-0.336,0.24-0.776,0.648-1.32,1.224l-0.528,0.576v17.52h-5.472v-17.28c0-1.216-0.041-2.432-0.12-3.648
		c-0.08-1.215-0.216-2.239-0.408-3.072h3.312c0.319,0.192,0.664,0.504,1.032,0.936c0.368,0.432,0.696,0.968,0.984,1.608l0.528-0.528
		c0.768-0.736,1.567-1.336,2.4-1.8c0.832-0.463,1.68-0.696,2.544-0.696c1.12,0,2.016,0.248,2.688,0.744
		c0.672,0.497,1.168,1.208,1.488,2.136L297.555,58.672z"/>
	<path fill="#A6A69C" d="M332.354,62.32c-1.088-0.544-2.112-0.96-3.072-1.248c-0.96-0.288-1.937-0.432-2.928-0.432
		c-0.672,0-1.224,0.185-1.656,0.552c-0.432,0.368-0.648,1.048-0.648,2.04c0,0.928,0.176,1.568,0.528,1.92
		c0.352,0.353,0.896,0.528,1.632,0.528c0.896,0,1.792,0.096,2.688,0.288c0.896,0.192,1.696,0.568,2.4,1.128
		c0.704,0.561,1.28,1.353,1.728,2.376c0.448,1.024,0.672,2.369,0.672,4.032c0,1.44-0.2,2.648-0.6,3.624
		c-0.401,0.977-0.944,1.76-1.632,2.352c-0.688,0.592-1.488,1.016-2.4,1.272c-0.912,0.255-1.896,0.384-2.952,0.384
		c-1.313,0-2.424-0.104-3.336-0.312c-0.912-0.208-1.784-0.472-2.616-0.792v-4.896c2.176,0.992,4.159,1.488,5.952,1.488
		c0.736,0,1.384-0.216,1.944-0.648c0.56-0.432,0.84-1.255,0.84-2.472c0-1.056-0.24-1.768-0.72-2.136
		c-0.48-0.367-1.185-0.552-2.112-0.552c-0.928,0-1.808-0.096-2.64-0.288c-0.833-0.192-1.56-0.56-2.184-1.104
		c-0.624-0.544-1.121-1.312-1.488-2.304c-0.368-0.991-0.552-2.288-0.552-3.888c0-1.344,0.168-2.464,0.504-3.36
		c0.336-0.896,0.816-1.615,1.44-2.16c0.624-0.544,1.375-0.936,2.256-1.176c0.88-0.24,1.864-0.36,2.952-0.36
		c0.448,0,0.928,0.032,1.44,0.096c0.512,0.064,1.04,0.16,1.584,0.288c0.544,0.128,1.072,0.264,1.584,0.408
		c0.512,0.144,0.976,0.296,1.392,0.456V62.32z"/>
	<path fill="#A6A69C" d="M352.13,58.672c0.768-0.736,1.567-1.336,2.4-1.8c0.832-0.463,1.68-0.696,2.544-0.696
		c1.824,0,3.064,0.624,3.72,1.872c0.655,1.248,0.984,2.976,0.984,5.184v17.424h-5.472V63.232c0-0.864-0.096-1.456-0.288-1.776
		c-0.192-0.319-0.48-0.48-0.864-0.48c-0.353,0-0.696,0.113-1.032,0.336c-0.336,0.225-0.776,0.641-1.32,1.248l-0.528,0.576v17.52
		h-5.472V63.232c0-0.864-0.096-1.456-0.288-1.776c-0.192-0.319-0.48-0.48-0.864-0.48c-0.353,0-0.696,0.12-1.032,0.36
		c-0.336,0.24-0.776,0.648-1.32,1.224l-0.528,0.576v17.52h-5.472v-17.28c0-1.216-0.041-2.432-0.12-3.648
		c-0.08-1.215-0.216-2.239-0.408-3.072h3.312c0.319,0.192,0.664,0.504,1.032,0.936c0.368,0.432,0.696,0.968,0.984,1.608l0.528-0.528
		c0.768-0.736,1.567-1.336,2.4-1.8c0.832-0.463,1.68-0.696,2.544-0.696c1.12,0,2.016,0.248,2.688,0.744
		c0.672,0.497,1.168,1.208,1.488,2.136L352.13,58.672z"/>
	<path fill="#A6A69C" d="M374.138,61.311c-0.528-0.352-1.112-0.528-1.752-0.528c-1.121,0-2.184,0.185-3.192,0.552
		c-1.008,0.368-2.024,0.872-3.048,1.512v-5.136c0.799-0.32,1.824-0.656,3.072-1.008c1.248-0.352,2.512-0.528,3.792-0.528
		c2.463,0,4.312,0.576,5.544,1.728c1.231,1.152,1.848,3.136,1.848,5.952v10.08c0,1.217,0.04,2.465,0.12,3.744
		c0.08,1.28,0.216,2.272,0.408,2.976h-3.312c-0.672-0.416-1.28-1.136-1.824-2.16l-0.384,0.48c-0.737,0.929-1.553,1.521-2.448,1.776
		c-0.896,0.255-1.664,0.384-2.304,0.384c-1.728,0-3.072-0.592-4.032-1.776c-0.96-1.184-1.44-2.928-1.44-5.232
		c0-2.432,0.648-4.392,1.944-5.88c1.296-1.488,3.32-2.232,6.072-2.232h1.728v-2.784C374.93,62.304,374.666,61.664,374.138,61.311z
		 M374.93,70.287h-1.392c-1.28,0-2.145,0.353-2.592,1.056c-0.448,0.704-0.672,1.616-0.672,2.736c0,1.056,0.151,1.817,0.456,2.28
		c0.304,0.464,0.744,0.696,1.32,0.696c0.384,0,0.76-0.12,1.128-0.36c0.367-0.24,0.775-0.616,1.224-1.128l0.528-0.576V70.287z"/>
	<path fill="#A6A69C" d="M392.929,58.287c1.408-1.408,2.752-2.112,4.032-2.112v6.864c-0.768-0.255-1.488-0.319-2.16-0.192
		c-0.672,0.128-1.44,0.561-2.304,1.296l-1.536,1.296v15.216h-5.472v-17.28c0-1.216-0.041-2.448-0.12-3.696
		c-0.08-1.248-0.216-2.256-0.408-3.024h3.312c0.48,0.288,0.952,0.752,1.416,1.392c0.463,0.641,0.792,1.472,0.984,2.496
		L392.929,58.287z"/>
	<path fill="#A6A69C" d="M408.361,80.559c-0.848,0.224-1.88,0.336-3.096,0.336c-1.024,0-1.856-0.096-2.496-0.288
		c-0.64-0.192-1.128-0.528-1.464-1.008s-0.56-1.144-0.672-1.992c-0.112-0.848-0.168-1.944-0.168-3.288V60.927h-3.264v-4.272h3.264
		v-5.472h5.472v5.472h4.224v4.272h-4.224V74.32c0,0.8,0.136,1.328,0.408,1.584c0.271,0.256,0.824,0.384,1.656,0.384
		c0.255,0,0.616-0.04,1.08-0.12c0.464-0.08,0.824-0.168,1.08-0.264v4.032C409.809,80.128,409.209,80.336,408.361,80.559z"/>
	<path fill="#A6A69C" d="M418.705,89.776h-5.472v-26.4c0-1.216-0.041-2.448-0.12-3.696c-0.08-1.248-0.216-2.256-0.408-3.024h3.312
		c0.352,0.192,0.696,0.488,1.032,0.888c0.336,0.4,0.632,0.888,0.888,1.464c0.768-0.799,1.608-1.472,2.52-2.016
		c0.912-0.543,1.8-0.816,2.664-0.816c0.896,0,1.704,0.2,2.424,0.6c0.72,0.4,1.328,1.08,1.824,2.04c0.496,0.96,0.879,2.24,1.152,3.84
		c0.271,1.601,0.408,3.6,0.408,6s-0.137,4.4-0.408,6c-0.272,1.601-0.656,2.88-1.152,3.84c-0.497,0.96-1.104,1.641-1.824,2.04
		c-0.72,0.4-1.528,0.6-2.424,0.6c-0.672,0-1.409-0.185-2.208-0.552c-0.8-0.368-1.536-0.872-2.208-1.512V89.776z M419.424,75.183
		c0.48,0.544,0.88,0.912,1.2,1.104c0.319,0.192,0.64,0.288,0.96,0.288c0.256,0,0.496-0.056,0.72-0.168
		c0.223-0.112,0.423-0.416,0.6-0.912c0.176-0.496,0.312-1.279,0.408-2.352c0.096-1.072,0.144-2.568,0.144-4.488
		s-0.048-3.416-0.144-4.488c-0.096-1.072-0.232-1.855-0.408-2.352c-0.176-0.496-0.376-0.8-0.6-0.912
		c-0.225-0.112-0.464-0.168-0.72-0.168c-0.32,0-0.641,0.096-0.96,0.288c-0.32,0.192-0.72,0.56-1.2,1.104l-0.72,0.816v11.424
		L419.424,75.183z"/>
	<path fill="#A6A69C" d="M439.056,58.48c1.6-1.536,3.248-2.304,4.944-2.304c1.824,0,3.063,0.624,3.72,1.872
		c0.656,1.248,0.984,2.976,0.984,5.184v17.424h-5.472V63.232c0-0.864-0.096-1.456-0.288-1.776c-0.192-0.319-0.48-0.48-0.864-0.48
		c-0.353,0-0.705,0.12-1.056,0.36c-0.353,0.24-0.785,0.648-1.296,1.224l-0.768,0.864v17.232h-5.472v-33.12h5.472v11.04
		L439.056,58.48z"/>
	<path fill="#A6A69C" d="M468.409,74.535c-0.304,1.584-0.776,2.864-1.416,3.84c-0.641,0.976-1.457,1.68-2.448,2.112
		c-0.992,0.432-2.192,0.648-3.6,0.648c-1.409,0-2.616-0.216-3.624-0.648s-1.832-1.136-2.472-2.112s-1.104-2.256-1.392-3.84
		c-0.288-1.584-0.432-3.543-0.432-5.88c0-2.335,0.144-4.296,0.432-5.88c0.288-1.584,0.751-2.864,1.392-3.84
		c0.64-0.976,1.464-1.68,2.472-2.112s2.215-0.648,3.624-0.648c1.408,0,2.608,0.216,3.6,0.648c0.991,0.432,1.807,1.136,2.448,2.112
		c0.64,0.977,1.112,2.256,1.416,3.84c0.304,1.584,0.456,3.544,0.456,5.88C468.865,70.992,468.712,72.951,468.409,74.535z
		 M459.745,60.592c-0.32,0.192-0.576,0.576-0.768,1.152c-0.192,0.576-0.32,1.416-0.384,2.52c-0.064,1.104-0.096,2.568-0.096,4.392
		s0.032,3.288,0.096,4.392c0.064,1.104,0.192,1.944,0.384,2.52c0.192,0.576,0.448,0.96,0.768,1.152c0.32,0.192,0.72,0.288,1.2,0.288
		s0.88-0.096,1.2-0.288c0.319-0.192,0.576-0.576,0.768-1.152c0.192-0.576,0.32-1.416,0.384-2.52
		c0.063-1.104,0.096-2.568,0.096-4.392s-0.032-3.288-0.096-4.392c-0.064-1.104-0.192-1.944-0.384-2.52
		c-0.192-0.576-0.448-0.96-0.768-1.152c-0.32-0.192-0.72-0.288-1.2-0.288S460.064,60.4,459.745,60.592z"/>
	<path fill="#A6A69C" d="M479.28,58.48c1.6-1.536,3.248-2.304,4.944-2.304c1.824,0,3.063,0.624,3.72,1.872
		c0.656,1.248,0.984,2.976,0.984,5.184v17.424h-5.472V63.232c0-0.864-0.096-1.456-0.288-1.776c-0.192-0.319-0.48-0.48-0.864-0.48
		c-0.353,0-0.704,0.12-1.056,0.36c-0.353,0.24-0.785,0.648-1.296,1.224l-1.056,1.2v16.896h-5.472v-17.28
		c0-1.216-0.041-2.448-0.12-3.696c-0.08-1.248-0.216-2.256-0.408-3.024h3.312c0.352,0.224,0.72,0.56,1.104,1.008
		c0.384,0.449,0.72,1.025,1.008,1.728L479.28,58.48z"/>
	<path fill="#A6A69C" d="M507.695,79.599c-0.768,0.288-1.72,0.617-2.856,0.984c-1.136,0.367-2.424,0.552-3.864,0.552
		c-1.152,0-2.208-0.161-3.168-0.48s-1.776-0.936-2.448-1.848c-0.672-0.912-1.192-2.176-1.56-3.792
		c-0.368-1.615-0.552-3.736-0.552-6.36c0-2.335,0.151-4.296,0.456-5.88c0.304-1.584,0.784-2.864,1.44-3.84
		c0.655-0.976,1.503-1.68,2.544-2.112c1.04-0.432,2.28-0.648,3.72-0.648c2.336,0,4.063,0.576,5.184,1.728
		c1.12,1.152,1.68,3.136,1.68,5.952v5.28h-9.552c0,2.112,0.104,3.688,0.312,4.728c0.208,1.04,0.68,1.784,1.416,2.232
		c0.832,0.48,1.904,0.6,3.216,0.36c1.312-0.24,2.656-0.792,4.032-1.656V79.599z M503.135,62.559
		c-0.064-0.576-0.168-1.032-0.312-1.368c-0.144-0.336-0.344-0.568-0.6-0.696c-0.257-0.127-0.593-0.192-1.008-0.192
		c-0.48,0-0.872,0.08-1.176,0.24c-0.305,0.16-0.552,0.424-0.744,0.792c-0.192,0.368-0.329,0.856-0.408,1.464
		c-0.08,0.608-0.136,1.36-0.168,2.256h4.512v-0.24C503.231,63.888,503.199,63.135,503.135,62.559z"/>
	<path fill="#A6A69C" d="M530.279,80.559c-0.848,0.224-1.88,0.336-3.096,0.336c-1.024,0-1.856-0.096-2.496-0.288
		c-0.64-0.192-1.128-0.528-1.464-1.008s-0.56-1.144-0.672-1.992c-0.112-0.848-0.168-1.944-0.168-3.288V60.927h-3.264v-4.272h3.264
		v-5.472h5.472v5.472h4.224v4.272h-4.224V74.32c0,0.8,0.136,1.328,0.408,1.584c0.271,0.256,0.824,0.384,1.656,0.384
		c0.255,0,0.616-0.04,1.08-0.12c0.464-0.08,0.824-0.168,1.08-0.264v4.032C531.726,80.128,531.126,80.336,530.279,80.559z"/>
	<path fill="#A6A69C" d="M550.006,74.535c-0.304,1.584-0.776,2.864-1.416,3.84c-0.641,0.976-1.457,1.68-2.448,2.112
		c-0.992,0.432-2.192,0.648-3.6,0.648c-1.409,0-2.616-0.216-3.624-0.648s-1.832-1.136-2.472-2.112s-1.104-2.256-1.392-3.84
		c-0.288-1.584-0.432-3.543-0.432-5.88c0-2.335,0.144-4.296,0.432-5.88c0.288-1.584,0.751-2.864,1.392-3.84
		c0.64-0.976,1.464-1.68,2.472-2.112s2.215-0.648,3.624-0.648c1.408,0,2.608,0.216,3.6,0.648c0.991,0.432,1.807,1.136,2.448,2.112
		c0.64,0.977,1.112,2.256,1.416,3.84c0.304,1.584,0.456,3.544,0.456,5.88C550.462,70.992,550.31,72.951,550.006,74.535z
		 M541.342,60.592c-0.32,0.192-0.576,0.576-0.768,1.152c-0.192,0.576-0.32,1.416-0.384,2.52c-0.064,1.104-0.096,2.568-0.096,4.392
		s0.032,3.288,0.096,4.392c0.064,1.104,0.192,1.944,0.384,2.52c0.192,0.576,0.448,0.96,0.768,1.152c0.32,0.192,0.72,0.288,1.2,0.288
		s0.88-0.096,1.2-0.288c0.319-0.192,0.576-0.576,0.768-1.152c0.192-0.576,0.32-1.416,0.384-2.52
		c0.063-1.104,0.096-2.568,0.096-4.392s-0.032-3.288-0.096-4.392c-0.064-1.104-0.192-1.944-0.384-2.52
		c-0.192-0.576-0.448-0.96-0.768-1.152c-0.32-0.192-0.72-0.288-1.2-0.288S541.662,60.4,541.342,60.592z"/>
	<path fill="#A6A69C" d="M572.157,80.656h-5.664V52.719h-5.808v-5.184h17.328v5.184h-5.856V80.656z"/>
	<path fill="#A6A69C" d="M585.021,80.656l-7.056-33.12h5.76l3.408,18.24c0.128,0.608,0.248,1.328,0.36,2.16
		c0.112,0.833,0.216,1.617,0.312,2.352c0.096,0.737,0.175,1.368,0.24,1.896c0.064,0.528,0.127,0.528,0.192,0
		c0.064-0.528,0.144-1.159,0.24-1.896c0.096-0.735,0.2-1.52,0.312-2.352c0.112-0.832,0.232-1.552,0.36-2.16l3.696-18.24h5.04
		l-7.008,33.12H585.021z"/>
</g>
</svg>
